<?xml version="1.0" encoding="UTF-8"?>
<svg id="Camada_1" data-name="Camada 1" xmlns="http://www.w3.org/2000/svg" viewBox="0 0 1080 1080">
  <defs>
    <style>
      .cls-1 {
        fill: #e86a0c;
      }
    </style>
  </defs>
  <g>
    <path class="cls-1" d="M118.78,522.09h-9.28l5.48-20.08h27.07l25.4,37.41,25.55-37.41h23.42v106.46h-20.84v-76.35l-27.98,41.22-28.14-41.22v76.35h-20.68v-86.39Z"/>
    <path class="cls-1" d="M238.01,522.09h-9.28l5.48-20.08h20.68l46.08,67.22v-67.22h20.84v106.46h-17.03l-46.08-67.22v67.22h-20.68v-86.39Z"/>
    <path class="cls-1" d="M353.98,605.36c-5.63-3.5-10.04-8.29-13.23-14.37-3.19-6.08-4.79-12.93-4.79-20.53s1.6-14.32,4.79-20.46c3.19-6.13,7.6-10.95,13.23-14.45,5.63-3.5,11.94-5.25,18.94-5.25,10.95,0,19.42,4.31,25.4,12.93v-10.8h19.32v57.03h6.84l-5.17,19.01h-20.99v-25.86l-6.54,21.9c-5.38,4.05-11.66,6.08-18.86,6.08s-13.31-1.75-18.94-5.25ZM392.23,586.19c4.05-4.21,6.08-9.45,6.08-15.74s-2.05-11.53-6.16-15.74c-4.11-4.21-9.25-6.31-15.44-6.31s-11.31,2.11-15.36,6.31c-4.06,4.21-6.08,9.46-6.08,15.74s2.03,11.54,6.08,15.74c4.05,4.21,9.18,6.31,15.36,6.31s11.46-2.1,15.51-6.31Z"/>
    <path class="cls-1" d="M505.69,608.47h-22.51l-27.83-38.63v38.63h-19.31v-87.45h-6.84l5.17-19.01h20.99v67.53l26.31-37.11h22.51l-27.83,37.26,29.35,38.78Z"/>
    <path class="cls-1" d="M523.56,605.36c-5.63-3.5-10.04-8.29-13.23-14.37-3.19-6.08-4.79-12.93-4.79-20.53s1.6-14.32,4.79-20.46c3.19-6.13,7.6-10.95,13.23-14.45,5.63-3.5,11.94-5.25,18.94-5.25,10.95,0,19.42,4.31,25.4,12.93v-10.8h19.32v57.03h6.84l-5.17,19.01h-20.99v-25.86l-6.54,21.9c-5.38,4.05-11.66,6.08-18.86,6.08s-13.31-1.75-18.94-5.25ZM561.81,586.19c4.05-4.21,6.08-9.45,6.08-15.74s-2.05-11.53-6.16-15.74c-4.11-4.21-9.25-6.31-15.44-6.31s-11.31,2.11-15.36,6.31c-4.06,4.21-6.08,9.46-6.08,15.74s2.03,11.54,6.08,15.74c4.05,4.21,9.18,6.31,15.36,6.31s11.46-2.1,15.51-6.31Z"/>
    <path class="cls-1" d="M598.76,521.02l5.17-19.01h20.99v54.45l6.24-21.14c4.46-3.35,9.99-5.02,16.58-5.02,8.82,0,15.82,2.89,20.99,8.67s7.76,13.84,7.76,24.18v26.31h6.69l-5.02,19.01h-20.99v-43.8c0-5.07-1.29-8.95-3.88-11.63-2.59-2.69-6.26-4.03-11.03-4.03-5.48,0-9.73,1.7-12.78,5.09-3.04,3.4-4.56,8.39-4.56,14.98v39.39h-19.31v-87.45h-6.84Z"/>
    <path class="cls-1" d="M709.86,605.36c-6.14-3.5-11-8.29-14.6-14.37-3.6-6.08-5.4-12.93-5.4-20.53s1.8-14.32,5.4-20.46c3.6-6.13,8.46-10.95,14.6-14.45,6.13-3.5,12.95-5.25,20.46-5.25s14.19,1.78,20.38,5.32c6.18,3.55,11.08,8.39,14.68,14.52,3.6,6.14,5.4,12.9,5.4,20.3s-1.77,14.17-5.32,20.3c-3.55,6.14-8.42,10.98-14.6,14.52-6.19,3.55-13.03,5.32-20.53,5.32s-14.32-1.75-20.46-5.25ZM741.35,589.16c3.19-1.92,5.68-4.54,7.45-7.83,1.77-3.29,2.66-6.92,2.66-10.88,0-6.08-2-11.2-6.01-15.36-4.01-4.16-9.05-6.24-15.13-6.24s-11.13,2.08-15.13,6.24c-4.01,4.16-6.01,9.28-6.01,15.36s2,11.33,6.01,15.44c4,4.11,9.05,6.16,15.13,6.16,4.16,0,7.83-.96,11.03-2.89Z"/>
    <path class="cls-1" d="M797.62,605.36c-5.63-3.5-10.04-8.29-13.23-14.37-3.19-6.08-4.79-12.93-4.79-20.53s1.6-14.32,4.79-20.46c3.19-6.13,7.6-10.95,13.23-14.45,5.63-3.5,11.94-5.25,18.94-5.25,10.95,0,19.42,4.31,25.4,12.93v-22.21h-6.84l5.17-19.01h20.99v87.45h6.84l-5.17,19.01h-20.99v-25.86l-6.54,21.9c-5.38,4.05-11.66,6.08-18.86,6.08s-13.31-1.75-18.94-5.25ZM835.87,586.19c4.05-4.21,6.08-9.45,6.08-15.74s-2.05-11.53-6.16-15.74c-4.11-4.21-9.25-6.31-15.44-6.31s-11.31,2.11-15.36,6.31c-4.06,4.21-6.08,9.46-6.08,15.74s2.03,11.54,6.08,15.74c4.05,4.21,9.18,6.31,15.36,6.31s11.46-2.1,15.51-6.31Z"/>
    <path class="cls-1" d="M894.8,605.36c-6.14-3.5-11-8.29-14.6-14.37-3.6-6.08-5.4-12.93-5.4-20.53s1.8-14.32,5.4-20.46c3.6-6.13,8.46-10.95,14.6-14.45,6.13-3.5,12.95-5.25,20.46-5.25s14.19,1.78,20.38,5.32c6.18,3.55,11.08,8.39,14.68,14.52,3.6,6.14,5.4,12.9,5.4,20.3s-1.77,14.17-5.32,20.3c-3.55,6.14-8.42,10.98-14.6,14.52-6.19,3.55-13.03,5.32-20.53,5.32s-14.32-1.75-20.46-5.25ZM926.28,589.16c3.19-1.92,5.68-4.54,7.45-7.83,1.77-3.29,2.66-6.92,2.66-10.88,0-6.08-2-11.2-6.01-15.36-4.01-4.16-9.05-6.24-15.13-6.24s-11.13,2.08-15.13,6.24c-4.01,4.16-6.01,9.28-6.01,15.36s2,11.33,6.01,15.44c4,4.11,9.05,6.16,15.13,6.16,4.16,0,7.83-.96,11.03-2.89Z"/>
  </g>
  <g>
    <path class="cls-1" d="M369.13,660.56v-16.95h10.52v2.52h-8v4.09h6.44v2.52h-6.44v5.3h8v2.52h-10.52Z"/>
    <path class="cls-1" d="M392.92,660.87c-1.15,0-2.22-.23-3.23-.68s-1.89-1.08-2.66-1.89c-.76-.8-1.36-1.74-1.79-2.8s-.65-2.2-.65-3.41.22-2.35.65-3.41c.43-1.06,1.03-2,1.79-2.8s1.65-1.43,2.66-1.89c1.01-.46,2.09-.68,3.23-.68,1.37,0,2.63.32,3.79.96,1.15.64,2.11,1.49,2.87,2.54l-2.24,1.2c-.52-.66-1.17-1.19-1.95-1.58-.77-.4-1.6-.59-2.47-.59-.81,0-1.56.17-2.26.5-.7.33-1.32.78-1.85,1.36-.53.57-.95,1.24-1.25,2-.3.76-.45,1.57-.45,2.42s.15,1.67.45,2.43c.3.75.72,1.42,1.25,2s1.16,1.03,1.86,1.36c.7.33,1.45.49,2.25.49.89,0,1.72-.2,2.49-.6s1.41-.93,1.93-1.59l2.24,1.22c-.76,1.06-1.71,1.9-2.87,2.54-1.15.63-2.42.95-3.79.95Z"/>
    <path class="cls-1" d="M412.63,660.87c-1.15,0-2.22-.23-3.23-.68s-1.9-1.09-2.66-1.89c-.77-.81-1.37-1.74-1.8-2.8-.44-1.06-.65-2.2-.65-3.41s.22-2.35.65-3.41c.44-1.06,1.04-2,1.8-2.8.77-.81,1.65-1.44,2.66-1.89,1.01-.46,2.09-.68,3.23-.68s2.23.23,3.24.68c1.01.46,1.9,1.09,2.66,1.89.77.81,1.37,1.74,1.8,2.8.43,1.06.65,2.2.65,3.41s-.22,2.35-.65,3.41c-.43,1.06-1.03,2-1.8,2.8-.77.81-1.65,1.44-2.66,1.89s-2.09.68-3.24.68ZM412.63,658.35c.81,0,1.56-.17,2.26-.5.7-.33,1.32-.79,1.86-1.36.54-.58.96-1.24,1.26-2,.3-.75.45-1.56.45-2.41s-.15-1.66-.45-2.42c-.3-.76-.72-1.43-1.26-2-.54-.58-1.16-1.03-1.86-1.36-.7-.33-1.46-.49-2.26-.49s-1.56.17-2.26.5c-.7.33-1.32.79-1.86,1.36s-.96,1.24-1.26,2-.45,1.56-.45,2.42.15,1.67.45,2.43.72,1.42,1.26,2,1.16,1.03,1.86,1.36c.7.33,1.46.49,2.26.49Z"/>
    <path class="cls-1" d="M426.18,660.56v-16.95h2.72l7.78,12.4v-12.4h2.52v16.95h-2.72l-7.78-12.39v12.39h-2.52Z"/>
    <path class="cls-1" d="M452.88,660.87c-1.15,0-2.22-.23-3.23-.68s-1.9-1.09-2.66-1.89c-.77-.81-1.37-1.74-1.8-2.8-.44-1.06-.65-2.2-.65-3.41s.22-2.35.65-3.41c.44-1.06,1.04-2,1.8-2.8.77-.81,1.65-1.44,2.66-1.89,1.01-.46,2.09-.68,3.23-.68s2.23.23,3.24.68c1.01.46,1.9,1.09,2.66,1.89.77.81,1.37,1.74,1.8,2.8.43,1.06.65,2.2.65,3.41s-.22,2.35-.65,3.41c-.43,1.06-1.03,2-1.8,2.8-.77.81-1.65,1.44-2.66,1.89s-2.09.68-3.24.68ZM452.88,658.35c.81,0,1.56-.17,2.26-.5.7-.33,1.32-.79,1.86-1.36.54-.58.96-1.24,1.26-2,.3-.75.45-1.56.45-2.41s-.15-1.66-.45-2.42c-.3-.76-.72-1.43-1.26-2-.54-.58-1.16-1.03-1.86-1.36-.7-.33-1.46-.49-2.26-.49s-1.56.17-2.26.5c-.7.33-1.32.79-1.86,1.36s-.96,1.24-1.26,2-.45,1.56-.45,2.42.15,1.67.45,2.43.72,1.42,1.26,2,1.16,1.03,1.86,1.36c.7.33,1.46.49,2.26.49Z"/>
    <path class="cls-1" d="M465.89,660.56l3.28-16.95h2.03l4.35,11.42,4.32-11.42h2.03l3.29,16.95h-2.57l-2.19-11.34-4.06,10.7h-1.69l-4.04-10.7-2.19,11.34h-2.57Z"/>
    <path class="cls-1" d="M490.93,660.56v-16.95h2.52v16.95h-2.52Z"/>
    <path class="cls-1" d="M505.3,643.61h2.94l6.16,16.95h-2.66l-1.17-3.22h-7.59l-1.16,3.22h-2.68l6.16-16.95ZM503.91,654.82h5.73l-2.87-7.87-2.86,7.87Z"/>
    <path class="cls-1" d="M528.45,660.56v-16.95h10.52v2.52h-8v4.09h6.44v2.52h-6.44v5.3h8v2.52h-10.52Z"/>
    <path class="cls-1" d="M553.25,660.56v-16.95h9.99v2.52h-7.47v4.09h6.31v2.52h-6.31v7.82h-2.52Z"/>
    <path class="cls-1" d="M568.28,660.56v-16.95h2.52v16.95h-2.52Z"/>
    <path class="cls-1" d="M576.97,660.56v-16.95h2.72l7.78,12.4v-12.4h2.52v16.95h-2.72l-7.78-12.39v12.39h-2.52Z"/>
    <path class="cls-1" d="M601.48,643.61h2.94l6.16,16.95h-2.66l-1.17-3.22h-7.59l-1.16,3.22h-2.68l6.16-16.95ZM600.09,654.82h5.73l-2.87-7.87-2.86,7.87Z"/>
    <path class="cls-1" d="M615.62,660.56v-16.95h2.72l7.78,12.4v-12.4h2.52v16.95h-2.72l-7.78-12.39v12.39h-2.52Z"/>
    <path class="cls-1" d="M642.3,660.87c-1.15,0-2.22-.23-3.23-.68s-1.89-1.08-2.66-1.89c-.76-.8-1.36-1.74-1.79-2.8s-.65-2.2-.65-3.41.22-2.35.65-3.41c.43-1.06,1.03-2,1.79-2.8s1.65-1.43,2.66-1.89c1.01-.46,2.09-.68,3.23-.68,1.37,0,2.63.32,3.79.96,1.15.64,2.11,1.49,2.87,2.54l-2.24,1.2c-.52-.66-1.17-1.19-1.95-1.58-.77-.4-1.6-.59-2.47-.59-.81,0-1.56.17-2.26.5-.7.33-1.32.78-1.85,1.36-.53.57-.95,1.24-1.25,2-.3.76-.45,1.57-.45,2.42s.15,1.67.45,2.43c.3.75.72,1.42,1.25,2s1.16,1.03,1.86,1.36c.7.33,1.45.49,2.25.49.89,0,1.72-.2,2.49-.6s1.41-.93,1.93-1.59l2.24,1.22c-.76,1.06-1.71,1.9-2.87,2.54-1.15.63-2.42.95-3.79.95ZM642.37,665.07c-.56.15-1.08.08-1.58-.21-.5-.29-.82-.7-.97-1.25l1.36-.36c.05.18.15.31.31.41.16.09.33.12.52.07s.32-.15.42-.31c.09-.16.11-.33.07-.52s-.15-.32-.31-.41c-.16-.08-.33-.11-.52-.08l-1.42.08,1.62-2.84,1.22.7-.48.82c.3.1.56.28.78.51.22.24.37.52.45.85.15.55.09,1.07-.2,1.57-.29.5-.71.82-1.26.97Z"/>
    <path class="cls-1" d="M659.59,643.61h2.94l6.16,16.95h-2.66l-1.17-3.22h-7.59l-1.16,3.22h-2.68l6.16-16.95ZM658.2,654.82h5.73l-2.87-7.87-2.86,7.87Z"/>
    <path class="cls-1" d="M678.69,660.87c-.93,0-1.82-.14-2.68-.44-.86-.29-1.6-.71-2.24-1.25-.64-.54-1.09-1.19-1.37-1.94l2.36-.88c.14.39.4.73.79,1.04.39.3.86.54,1.4.71.54.17,1.12.25,1.73.25.65,0,1.25-.1,1.82-.31s1.03-.5,1.38-.87c.35-.37.53-.81.53-1.31s-.18-.94-.55-1.27c-.37-.33-.84-.59-1.4-.79-.57-.19-1.16-.34-1.77-.44-1.19-.19-2.25-.48-3.19-.85-.94-.37-1.68-.89-2.23-1.56-.54-.67-.82-1.54-.82-2.61,0-1.01.29-1.89.87-2.64.58-.75,1.34-1.33,2.29-1.75.95-.42,1.97-.62,3.08-.62.91,0,1.79.14,2.64.43.85.29,1.6.7,2.25,1.25.65.54,1.12,1.2,1.4,1.98l-2.38.86c-.14-.4-.4-.74-.79-1.04-.39-.29-.85-.53-1.4-.7-.54-.17-1.12-.25-1.72-.25-.65,0-1.25.09-1.81.31-.56.21-1.02.51-1.37.88s-.53.8-.53,1.29c0,.61.17,1.07.5,1.38.33.31.78.55,1.34.7.56.15,1.19.29,1.88.41,1.11.18,2.14.47,3.09.88.95.41,1.71.96,2.29,1.64.58.68.87,1.52.87,2.51s-.29,1.88-.87,2.63c-.58.75-1.34,1.34-2.29,1.75-.95.42-1.98.62-3.09.62Z"/>
  </g>
</svg>